<svg width="48" height="48" viewBox="0 0 48 48" fill="none" xmlns="http://www.w3.org/2000/svg">
<circle cx="23.58" cy="23.6474" r="23.4536" fill="#22DD85"/>
<path d="M17.389 27.7172C16.8033 28.303 16.8033 29.2527 17.389 29.8385C17.9748 30.4243 18.9246 30.4243 19.5104 29.8385L17.389 27.7172ZM29.4777 19.2498C29.4777 18.4214 28.8061 17.7498 27.9777 17.7498L14.4777 17.7498C13.6493 17.7498 12.9777 18.4214 12.9777 19.2498C12.9777 20.0782 13.6493 20.7498 14.4777 20.7498H26.4777V32.7498C26.4777 33.5782 27.1493 34.2498 27.9777 34.2498C28.8061 34.2498 29.4777 33.5782 29.4777 32.7498L29.4777 19.2498ZM19.5104 29.8385L29.0384 20.3105L26.9171 18.1892L17.389 27.7172L19.5104 29.8385Z" fill="black"/>
</svg>
