<svg width="33" height="33" viewBox="0 0 33 33" fill="none" xmlns="http://www.w3.org/2000/svg">
<circle cx="16.5" cy="16.5" r="16.5" fill="#22DD85"/>
<path fill-rule="evenodd" clip-rule="evenodd" d="M10.564 16.1979C10.564 15.8092 10.2485 15.4937 9.85975 15.4937C9.4293 15.4937 8.88167 15.4937 8.45122 15.4937C8.06246 15.4937 7.74695 15.8092 7.74695 16.1979C7.74695 17.2804 7.74695 19.3411 7.74695 20.4235C7.74695 20.8123 8.06246 21.1278 8.45122 21.1278C8.88167 21.1278 9.4293 21.1278 9.85975 21.1278C10.2485 21.1278 10.564 20.8123 10.564 20.4235C10.564 19.3411 10.564 17.2804 10.564 16.1979Z" fill="#22DD85"/>
<path fill-rule="evenodd" clip-rule="evenodd" d="M26.0579 16.1979C26.0579 15.8092 25.7424 15.4937 25.3537 15.4937C24.9232 15.4937 24.3756 15.4937 23.9451 15.4937C23.5564 15.4937 23.2409 15.8092 23.2409 16.1979C23.2409 17.2804 23.2409 19.3411 23.2409 20.4235C23.2409 20.8123 23.5564 21.1278 23.9451 21.1278C24.3756 21.1278 24.9232 21.1278 25.3537 21.1278C25.7424 21.1278 26.0579 20.8123 26.0579 20.4235C26.0579 19.3411 26.0579 17.2804 26.0579 16.1979Z" fill="#22DD85"/>
<path fill-rule="evenodd" clip-rule="evenodd" d="M19.0153 23.9452C19.0153 23.1668 18.3848 22.5364 17.6064 22.5364H16.1985C15.4201 22.5364 14.7896 23.1668 14.7896 23.9452V25.3532C14.7896 26.1315 15.4201 26.762 16.1985 26.762H17.6064C18.3848 26.762 19.0153 26.1315 19.0153 25.3532V23.9452Z" fill="#22DD85"/>
<path fill-rule="evenodd" clip-rule="evenodd" d="M8.48011 14.7894H8.45123C7.67301 14.7894 7.04269 15.4198 7.04269 16.198V20.4236C7.04269 21.2018 7.67301 21.8321 8.45123 21.8321H9.85977C10.638 21.8321 11.2683 21.2018 11.2683 20.4236V16.198C11.2683 15.4317 10.6563 14.8085 9.89428 14.7901C10.2478 11.2329 13.2529 8.45102 16.9024 8.45102C20.552 8.45102 23.5571 11.2329 23.9106 14.7901C23.1486 14.8085 22.5366 15.4317 22.5366 16.198V20.4236C22.5366 21.1933 23.1535 21.8187 23.9205 21.8321C23.9008 21.9694 23.8698 22.1033 23.8282 22.2321C23.5099 23.2252 22.5781 23.9449 21.4802 23.9449H19.7195C19.7195 22.7779 18.7737 21.8321 17.6067 21.8321H16.1982C15.0312 21.8321 14.0854 22.7779 14.0854 23.9449C14.0854 24.1766 14.0854 24.4175 14.0854 24.6492C14.0854 25.8162 15.0312 26.762 16.1982 26.762H17.6067C18.53 26.762 19.3153 26.1697 19.6026 25.3436C19.6406 25.3499 19.6794 25.3535 19.7195 25.3535H21.4802C23.2057 25.3535 24.6691 24.2224 25.1691 22.6624C25.2544 22.3969 25.3121 22.1188 25.3375 21.8321H25.3537C26.1319 21.8321 26.7622 21.2018 26.7622 20.4236V16.198C26.7622 15.4198 26.1319 14.7894 25.3537 14.7894H25.3248C24.9698 10.4899 21.3893 7.09883 17.0116 7.04319L16.9024 7.04248C12.4747 7.04248 8.83858 10.4547 8.48011 14.7894ZM18.311 23.9449V24.6492C18.311 25.0379 17.9955 25.3535 17.6067 25.3535H16.1982C15.8094 25.3535 15.4939 25.0379 15.4939 24.6492V23.9449C15.4939 23.5562 15.8094 23.2407 16.1982 23.2407H17.6067C17.9955 23.2407 18.311 23.5562 18.311 23.9449ZM9.85977 16.198H8.45123V20.4236H9.85977V16.198ZM25.3537 16.198H23.9451V20.4236H25.3537V16.198Z" fill="#070606"/>
</svg>
