<svg width="17" height="21" viewBox="0 0 17 21" fill="none" xmlns="http://www.w3.org/2000/svg">
<path d="M8.5 0C4.15103 0 0.625 3.52603 0.625 7.875C0.625 9.58748 1.18642 11.1589 2.11961 12.4458C2.13634 12.4766 2.13897 12.5111 2.158 12.5406L7.408 20.4156C7.65147 20.7808 8.06163 21 8.5 21C8.93837 21 9.34853 20.7808 9.592 20.4156L14.842 12.5406C14.8614 12.5111 14.8637 12.4766 14.8804 12.4458C15.8136 11.1589 16.375 9.58748 16.375 7.875C16.375 3.52603 12.849 0 8.5 0ZM8.5 10.5C7.05034 10.5 5.875 9.32466 5.875 7.875C5.875 6.42534 7.05034 5.25 8.5 5.25C9.94966 5.25 11.125 6.42534 11.125 7.875C11.125 9.32466 9.94966 10.5 8.5 10.5Z" fill="#231F20"/>
</svg>
