<svg width="25" height="24" viewBox="0 0 25 24" fill="none" xmlns="http://www.w3.org/2000/svg">
<path d="M8.81445 3.99668C8.81445 1.78938 10.3908 0 12.3353 0C14.2798 0 15.8561 1.78938 15.8561 3.99668C15.8561 6.20396 14.2798 7.99334 12.3353 7.99334C10.3908 7.99334 8.81445 6.20396 8.81445 3.99668ZM12.3353 2.00033C11.364 2.00033 10.5766 2.89412 10.5766 3.99668C10.5766 5.09922 11.364 5.99301 12.3353 5.99301C13.3066 5.99301 14.094 5.09922 14.094 3.99668C14.094 2.89412 13.3066 2.00033 12.3353 2.00033Z" fill="#22DD85"/>
<path d="M17.6218 4.99659C17.6218 3.33946 18.8053 1.99609 20.2651 1.99609C21.7249 1.99609 22.9084 3.33946 22.9084 4.99659C22.9084 6.65372 21.7249 7.99709 20.2651 7.99709C18.8053 7.99709 17.6218 6.65372 17.6218 4.99659ZM20.2651 3.99642C19.7786 3.99642 19.384 4.44422 19.384 4.99659C19.384 5.54896 19.7786 5.99675 20.2651 5.99675C20.7516 5.99675 21.1462 5.54896 21.1462 4.99659C21.1462 4.44422 20.7516 3.99642 20.2651 3.99642Z" fill="#22DD85"/>
<path d="M4.40548 1.99609C2.94563 1.99609 1.76221 3.33946 1.76221 4.99659C1.76221 6.65372 2.94563 7.99709 4.40548 7.99709C5.86532 7.99709 7.04875 6.65372 7.04875 4.99659C7.04875 3.33946 5.86532 1.99609 4.40548 1.99609ZM3.52439 4.99659C3.52439 4.44422 3.91887 3.99642 4.40548 3.99642C4.89209 3.99642 5.28657 4.44422 5.28657 4.99659C5.28657 5.54896 4.89209 5.99675 4.40548 5.99675C3.91887 5.99675 3.52439 5.54896 3.52439 4.99659Z" fill="#22DD85"/>
<path d="M5.75803 9.99707C5.45816 10.5855 5.28654 11.2687 5.28654 11.9974H1.76218V16.9988C1.76218 18.6561 2.94561 19.9993 4.40545 19.9993C4.77893 19.9993 5.13431 19.9115 5.4564 19.7529C5.58699 20.4158 5.79003 21.0475 6.05561 21.637C5.54595 21.8709 4.98894 21.9997 4.40545 21.9997C1.97239 21.9997 0 19.7607 0 16.9988V11.9974C0 10.8927 0.788963 9.99707 1.76218 9.99707H5.75803Z" fill="#22DD85"/>
<path d="M18.615 21.637C19.1246 21.8709 19.6816 21.9997 20.2651 21.9997C22.6981 21.9997 24.6705 19.7607 24.6705 16.9988V11.9974C24.6705 10.8927 23.8816 9.99707 22.9084 9.99707H18.9124C19.2124 10.5855 19.384 11.2687 19.384 11.9974L22.9084 11.9974V16.9988C22.9084 18.6561 21.7249 19.9993 20.2651 19.9993C19.8917 19.9993 19.5363 19.9115 19.2141 19.7529C19.0836 20.4158 18.8806 21.0475 18.615 21.637Z" fill="#22DD85"/>
<path d="M8.81101 9.99707C7.83779 9.99707 7.04883 10.8927 7.04883 11.9974V17.999C7.04883 21.3134 9.4157 24 12.3354 24C15.255 24 17.6219 21.3134 17.6219 17.999V11.9974C17.6219 10.8927 16.833 9.99707 15.8597 9.99707H8.81101ZM8.81101 11.9974H15.8597V17.999C15.8597 20.2086 14.2818 21.9997 12.3354 21.9997C10.3889 21.9997 8.81101 20.2086 8.81101 17.999V11.9974Z" fill="#22DD85"/>
</svg>
