<svg width="24" height="24" viewBox="0 0 24 24" fill="none" xmlns="http://www.w3.org/2000/svg">
<rect y="1" width="24" height="23" rx="5" fill="#22DD85"/>
<path d="M5.99189 12.2053C5.49486 12.2097 5.09556 12.6163 5.10004 13.1133C5.10451 13.6104 5.51107 14.0097 6.00811 14.0052L5.99189 12.2053ZM18.3263 13.6306C18.6746 13.276 18.6695 12.7062 18.3148 12.3579L12.5359 6.68213C12.1813 6.33384 11.6115 6.33897 11.2632 6.69359C10.9149 7.04822 10.92 7.61804 11.2746 7.96633L16.4115 13.0114L11.3664 18.1483C11.0181 18.5029 11.0232 19.0727 11.3778 19.421C11.7325 19.7693 12.3023 19.7642 12.6506 19.4095L18.3263 13.6306ZM6.00811 14.0052L17.6923 13.8999L17.6761 12.1L5.99189 12.2053L6.00811 14.0052Z" fill="#07343D"/>
</svg>
