<svg width="382" height="25" viewBox="0 0 382 25" fill="none" xmlns="http://www.w3.org/2000/svg">
<circle cx="11.5" cy="13.5" r="10.25" stroke="white" stroke-width="2.5"/>
<path d="M11.44 19.12C10.36 19.12 9.39333 18.8867 8.54 18.42C7.7 17.9533 7.04 17.3133 6.56 16.5C6.08 15.6867 5.84 14.7533 5.84 13.7C5.84 12.6467 6.08 11.7133 6.56 10.9C7.04 10.0867 7.7 9.45333 8.54 9C9.39333 8.53333 10.36 8.3 11.44 8.3C12.4 8.3 13.2533 8.49333 14 8.88C14.76 9.25333 15.3467 9.81333 15.76 10.56L14.3 11.5C13.9533 10.98 13.5267 10.6 13.02 10.36C12.5267 10.1067 11.9933 9.98 11.42 9.98C10.7267 9.98 10.1067 10.1333 9.56 10.44C9.01333 10.7467 8.58 11.18 8.26 11.74C7.94 12.2867 7.78 12.94 7.78 13.7C7.78 14.46 7.94 15.12 8.26 15.68C8.58 16.24 9.01333 16.6733 9.56 16.98C10.1067 17.2867 10.7267 17.44 11.42 17.44C11.9933 17.44 12.5267 17.32 13.02 17.08C13.5267 16.8267 13.9533 16.44 14.3 15.92L15.76 16.84C15.3467 17.5733 14.76 18.14 14 18.54C13.2533 18.9267 12.4 19.12 11.44 19.12Z" fill="white"/>
<path d="M28.56 19V17.608L33.008 13.384C33.3813 13.032 33.6587 12.7227 33.84 12.456C34.0213 12.1893 34.1387 11.944 34.192 11.72C34.256 11.4853 34.288 11.2667 34.288 11.064C34.288 10.552 34.112 10.1573 33.76 9.88C33.408 9.592 32.8907 9.448 32.208 9.448C31.664 9.448 31.168 9.544 30.72 9.736C30.2827 9.928 29.904 10.2213 29.584 10.616L28.128 9.496C28.5653 8.90933 29.152 8.456 29.888 8.136C30.6347 7.80533 31.4667 7.64 32.384 7.64C33.1947 7.64 33.8987 7.77333 34.496 8.04C35.104 8.296 35.568 8.664 35.888 9.144C36.2187 9.624 36.384 10.1947 36.384 10.856C36.384 11.2187 36.336 11.5813 36.24 11.944C36.144 12.296 35.9627 12.6693 35.696 13.064C35.4293 13.4587 35.04 13.9013 34.528 14.392L30.704 18.024L30.272 17.24H36.816V19H28.56ZM42.6885 19.16C41.8032 19.16 41.0032 18.936 40.2885 18.488C39.5845 18.04 39.0298 17.3893 38.6245 16.536C38.2192 15.672 38.0165 14.6267 38.0165 13.4C38.0165 12.1733 38.2192 11.1333 38.6245 10.28C39.0298 9.416 39.5845 8.76 40.2885 8.312C41.0032 7.864 41.8032 7.64 42.6885 7.64C43.5845 7.64 44.3845 7.864 45.0885 8.312C45.7925 8.76 46.3472 9.416 46.7525 10.28C47.1685 11.1333 47.3765 12.1733 47.3765 13.4C47.3765 14.6267 47.1685 15.672 46.7525 16.536C46.3472 17.3893 45.7925 18.04 45.0885 18.488C44.3845 18.936 43.5845 19.16 42.6885 19.16ZM42.6885 17.352C43.2112 17.352 43.6645 17.2133 44.0485 16.936C44.4325 16.648 44.7312 16.2107 44.9445 15.624C45.1685 15.0373 45.2805 14.296 45.2805 13.4C45.2805 12.4933 45.1685 11.752 44.9445 11.176C44.7312 10.5893 44.4325 10.1573 44.0485 9.88C43.6645 9.592 43.2112 9.448 42.6885 9.448C42.1872 9.448 41.7392 9.592 41.3445 9.88C40.9605 10.1573 40.6565 10.5893 40.4325 11.176C40.2192 11.752 40.1125 12.4933 40.1125 13.4C40.1125 14.296 40.2192 15.0373 40.4325 15.624C40.6565 16.2107 40.9605 16.648 41.3445 16.936C41.7392 17.2133 42.1872 17.352 42.6885 17.352ZM48.6225 19V17.608L53.0705 13.384C53.4438 13.032 53.7212 12.7227 53.9025 12.456C54.0838 12.1893 54.2012 11.944 54.2545 11.72C54.3185 11.4853 54.3505 11.2667 54.3505 11.064C54.3505 10.552 54.1745 10.1573 53.8225 9.88C53.4705 9.592 52.9532 9.448 52.2705 9.448C51.7265 9.448 51.2305 9.544 50.7825 9.736C50.3452 9.928 49.9665 10.2213 49.6465 10.616L48.1905 9.496C48.6278 8.90933 49.2145 8.456 49.9505 8.136C50.6972 7.80533 51.5292 7.64 52.4465 7.64C53.2572 7.64 53.9612 7.77333 54.5585 8.04C55.1665 8.296 55.6305 8.664 55.9505 9.144C56.2812 9.624 56.4465 10.1947 56.4465 10.856C56.4465 11.2187 56.3985 11.5813 56.3025 11.944C56.2065 12.296 56.0252 12.6693 55.7585 13.064C55.4918 13.4587 55.1025 13.9013 54.5905 14.392L50.7665 18.024L50.3345 17.24H56.8785V19H48.6225ZM61.599 19.16C60.8097 19.16 60.0363 19.048 59.279 18.824C58.5323 18.5893 57.903 18.2693 57.391 17.864L58.287 16.248C58.6923 16.5787 59.183 16.8453 59.759 17.048C60.335 17.2507 60.9377 17.352 61.567 17.352C62.3137 17.352 62.895 17.2027 63.311 16.904C63.727 16.5947 63.935 16.1787 63.935 15.656C63.935 15.144 63.743 14.7387 63.359 14.44C62.975 14.1413 62.3563 13.992 61.503 13.992H60.479V12.568L63.679 8.76L63.951 9.544H57.935V7.8H65.567V9.192L62.367 13L61.279 12.36H61.903C63.279 12.36 64.3083 12.6693 64.991 13.288C65.6843 13.896 66.031 14.68 66.031 15.64C66.031 16.2693 65.871 16.8507 65.551 17.384C65.231 17.9173 64.7403 18.3493 64.079 18.68C63.4283 19 62.6017 19.16 61.599 19.16ZM72.6134 19V7.8H77.2214C78.2134 7.8 79.0614 7.96 79.7654 8.28C80.48 8.6 81.0294 9.05867 81.4134 9.656C81.7974 10.2533 81.9894 10.9627 81.9894 11.784C81.9894 12.6053 81.7974 13.3147 81.4134 13.912C81.0294 14.4987 80.48 14.952 79.7654 15.272C79.0614 15.5813 78.2134 15.736 77.2214 15.736H73.7654L74.6934 14.792V19H72.6134ZM79.9414 19L77.1094 14.936H79.3334L82.1814 19H79.9414ZM74.6934 15.016L73.7654 14.024H77.1254C78.0427 14.024 78.7307 13.8267 79.1894 13.432C79.6587 13.0373 79.8934 12.488 79.8934 11.784C79.8934 11.0693 79.6587 10.52 79.1894 10.136C78.7307 9.752 78.0427 9.56 77.1254 9.56H73.7654L74.6934 8.536V15.016ZM89.5645 19.16C88.6898 19.16 87.8845 19.016 87.1485 18.728C86.4125 18.44 85.7725 18.04 85.2285 17.528C84.6845 17.0053 84.2632 16.3973 83.9645 15.704C83.6658 15 83.5165 14.232 83.5165 13.4C83.5165 12.568 83.6658 11.8053 83.9645 11.112C84.2632 10.408 84.6845 9.8 85.2285 9.288C85.7725 8.76533 86.4125 8.36 87.1485 8.072C87.8845 7.784 88.6845 7.64 89.5485 7.64C90.4232 7.64 91.2232 7.784 91.9485 8.072C92.6845 8.36 93.3245 8.76533 93.8685 9.288C94.4125 9.8 94.8338 10.408 95.1325 11.112C95.4312 11.8053 95.5805 12.568 95.5805 13.4C95.5805 14.232 95.4312 15 95.1325 15.704C94.8338 16.408 94.4125 17.016 93.8685 17.528C93.3245 18.04 92.6845 18.44 91.9485 18.728C91.2232 19.016 90.4285 19.16 89.5645 19.16ZM89.5485 17.336C90.1138 17.336 90.6365 17.24 91.1165 17.048C91.5965 16.856 92.0125 16.584 92.3645 16.232C92.7165 15.8693 92.9885 15.4533 93.1805 14.984C93.3832 14.504 93.4845 13.976 93.4845 13.4C93.4845 12.824 93.3832 12.3013 93.1805 11.832C92.9885 11.352 92.7165 10.936 92.3645 10.584C92.0125 10.2213 91.5965 9.944 91.1165 9.752C90.6365 9.56 90.1138 9.464 89.5485 9.464C88.9832 9.464 88.4605 9.56 87.9805 9.752C87.5112 9.944 87.0952 10.2213 86.7325 10.584C86.3805 10.936 86.1032 11.352 85.9005 11.832C85.7085 12.3013 85.6125 12.824 85.6125 13.4C85.6125 13.9653 85.7085 14.488 85.9005 14.968C86.1032 15.448 86.3805 15.8693 86.7325 16.232C87.0845 16.584 87.5005 16.856 87.9805 17.048C88.4605 17.24 88.9832 17.336 89.5485 17.336ZM96.045 19L101.085 7.8H103.133L108.189 19H106.013L101.677 8.904H102.509L98.189 19H96.045ZM98.365 16.408L98.925 14.776H104.973L105.533 16.408H98.365ZM109.613 19V7.8H111.325L116.221 15.976H115.325L120.141 7.8H121.853L121.869 19H119.901L119.885 10.888H120.301L116.205 17.72H115.277L111.117 10.888H111.597V19H109.613ZM126.815 12.456H132.383V14.168H126.815V12.456ZM126.975 17.256H133.295V19H124.895V7.8H133.071V9.544H126.975V17.256ZM135.613 19V7.8H140.221C141.213 7.8 142.061 7.96 142.765 8.28C143.48 8.6 144.029 9.05867 144.413 9.656C144.797 10.2533 144.989 10.9627 144.989 11.784C144.989 12.6053 144.797 13.3147 144.413 13.912C144.029 14.4987 143.48 14.952 142.765 15.272C142.061 15.5813 141.213 15.736 140.221 15.736H136.765L137.693 14.792V19H135.613ZM142.941 19L140.109 14.936H142.333L145.181 19H142.941ZM137.693 15.016L136.765 14.024H140.125C141.043 14.024 141.731 13.8267 142.189 13.432C142.659 13.0373 142.893 12.488 142.893 11.784C142.893 11.0693 142.659 10.52 142.189 10.136C141.731 9.752 141.043 9.56 140.125 9.56H136.765L137.693 8.536V15.016ZM151.738 19V7.8H153.818V17.24H159.674V19H151.738ZM162.542 19V9.56H158.83V7.8H168.334V9.56H164.622V19H162.542ZM169.895 19V7.8H174.791C176.007 7.8 177.073 8.03467 177.991 8.504C178.908 8.97333 179.623 9.624 180.135 10.456C180.647 11.288 180.903 12.2693 180.903 13.4C180.903 14.52 180.647 15.5013 180.135 16.344C179.623 17.176 178.908 17.8267 177.991 18.296C177.073 18.7653 176.007 19 174.791 19H169.895ZM171.975 17.24H174.695C175.537 17.24 176.263 17.08 176.871 16.76C177.489 16.44 177.964 15.992 178.295 15.416C178.636 14.84 178.807 14.168 178.807 13.4C178.807 12.6213 178.636 11.9493 178.295 11.384C177.964 10.808 177.489 10.36 176.871 10.04C176.263 9.72 175.537 9.56 174.695 9.56H171.975V17.24ZM183.249 19.112C182.886 19.112 182.577 18.9893 182.321 18.744C182.065 18.488 181.937 18.168 181.937 17.784C181.937 17.3787 182.065 17.0587 182.321 16.824C182.577 16.5787 182.886 16.456 183.249 16.456C183.612 16.456 183.921 16.5787 184.177 16.824C184.433 17.0587 184.561 17.3787 184.561 17.784C184.561 18.168 184.433 18.488 184.177 18.744C183.921 18.9893 183.612 19.112 183.249 19.112ZM189.545 19L194.585 7.8H196.633L201.689 19H199.513L195.177 8.904H196.009L191.689 19H189.545ZM191.865 16.408L192.425 14.776H198.473L199.033 16.408H191.865ZM203.113 19V7.8H205.193V17.24H211.049V19H203.113ZM212.692 19V7.8H214.772V17.24H220.628V19H212.692ZM226.692 19V7.8H231.3C232.292 7.8 233.14 7.96 233.844 8.28C234.558 8.6 235.108 9.05867 235.492 9.656C235.876 10.2533 236.068 10.9627 236.068 11.784C236.068 12.6053 235.876 13.3147 235.492 13.912C235.108 14.4987 234.558 14.952 233.844 15.272C233.14 15.5813 232.292 15.736 231.3 15.736H227.844L228.772 14.792V19H226.692ZM234.02 19L231.188 14.936H233.411L236.26 19H234.02ZM228.772 15.016L227.844 14.024H231.204C232.121 14.024 232.809 13.8267 233.267 13.432C233.737 13.0373 233.972 12.488 233.972 11.784C233.972 11.0693 233.737 10.52 233.267 10.136C232.809 9.752 232.121 9.56 231.204 9.56H227.844L228.772 8.536V15.016ZM238.395 19V7.8H240.475V19H238.395ZM248.736 19.16C247.861 19.16 247.056 19.0213 246.32 18.744C245.595 18.456 244.96 18.056 244.416 17.544C243.872 17.0213 243.451 16.408 243.152 15.704C242.853 15 242.704 14.232 242.704 13.4C242.704 12.568 242.853 11.8 243.152 11.096C243.451 10.392 243.872 9.784 244.416 9.272C244.971 8.74933 245.616 8.34933 246.352 8.072C247.088 7.784 247.893 7.64 248.768 7.64C249.717 7.64 250.571 7.79467 251.328 8.104C252.096 8.41333 252.741 8.86667 253.264 9.464L251.952 10.744C251.515 10.3067 251.04 9.98667 250.528 9.784C250.027 9.57067 249.472 9.464 248.864 9.464C248.277 9.464 247.733 9.56 247.232 9.752C246.731 9.944 246.299 10.216 245.936 10.568C245.573 10.92 245.291 11.336 245.088 11.816C244.896 12.296 244.8 12.824 244.8 13.4C244.8 13.9653 244.896 14.488 245.088 14.968C245.291 15.448 245.573 15.8693 245.936 16.232C246.299 16.584 246.725 16.856 247.216 17.048C247.707 17.24 248.251 17.336 248.848 17.336C249.403 17.336 249.936 17.2507 250.448 17.08C250.971 16.8987 251.467 16.6 251.936 16.184L253.12 17.736C252.533 18.2053 251.851 18.5627 251.072 18.808C250.304 19.0427 249.525 19.16 248.736 19.16ZM251.152 17.464V13.272H253.12V17.736L251.152 17.464ZM263.735 7.8H265.815V19H263.735V7.8ZM257.943 19H255.863V7.8H257.943V19ZM263.895 14.2H257.767V12.424H263.895V14.2ZM271.089 19V9.56H267.377V7.8H276.881V9.56H273.169V19H271.089ZM281.804 19.16C280.929 19.16 280.092 19.0373 279.292 18.792C278.492 18.536 277.857 18.2107 277.388 17.816L278.108 16.2C278.556 16.552 279.111 16.8453 279.772 17.08C280.433 17.3147 281.111 17.432 281.804 17.432C282.391 17.432 282.865 17.368 283.228 17.24C283.591 17.112 283.857 16.9413 284.028 16.728C284.199 16.504 284.284 16.2533 284.284 15.976C284.284 15.6347 284.161 15.3627 283.916 15.16C283.671 14.9467 283.351 14.7813 282.956 14.664C282.572 14.536 282.14 14.4187 281.66 14.312C281.191 14.2053 280.716 14.0827 280.236 13.944C279.767 13.7947 279.335 13.608 278.94 13.384C278.556 13.1493 278.241 12.84 277.996 12.456C277.751 12.072 277.628 11.5813 277.628 10.984C277.628 10.376 277.788 9.82133 278.108 9.32C278.439 8.808 278.935 8.40267 279.596 8.104C280.268 7.79467 281.116 7.64 282.14 7.64C282.812 7.64 283.479 7.72533 284.14 7.896C284.801 8.06667 285.377 8.312 285.868 8.632L285.212 10.248C284.711 9.94933 284.193 9.73067 283.66 9.592C283.127 9.44267 282.615 9.368 282.124 9.368C281.548 9.368 281.079 9.43733 280.716 9.576C280.364 9.71467 280.103 9.896 279.932 10.12C279.772 10.344 279.692 10.6 279.692 10.888C279.692 11.2293 279.809 11.5067 280.044 11.72C280.289 11.9227 280.604 12.0827 280.988 12.2C281.383 12.3173 281.82 12.4347 282.3 12.552C282.78 12.6587 283.255 12.7813 283.724 12.92C284.204 13.0587 284.636 13.24 285.02 13.464C285.415 13.688 285.729 13.992 285.964 14.376C286.209 14.76 286.332 15.2453 286.332 15.832C286.332 16.4293 286.167 16.984 285.836 17.496C285.516 17.9973 285.02 18.4027 284.348 18.712C283.676 19.0107 282.828 19.16 281.804 19.16ZM292.817 19V7.8H297.425C298.417 7.8 299.265 7.96 299.969 8.28C300.683 8.6 301.233 9.05867 301.617 9.656C302.001 10.2533 302.193 10.9627 302.193 11.784C302.193 12.6053 302.001 13.3147 301.617 13.912C301.233 14.4987 300.683 14.952 299.969 15.272C299.265 15.5813 298.417 15.736 297.425 15.736H293.969L294.897 14.792V19H292.817ZM300.145 19L297.313 14.936H299.536L302.385 19H300.145ZM294.897 15.016L293.969 14.024H297.329C298.246 14.024 298.934 13.8267 299.392 13.432C299.862 13.0373 300.097 12.488 300.097 11.784C300.097 11.0693 299.862 10.52 299.392 10.136C298.934 9.752 298.246 9.56 297.329 9.56H293.969L294.897 8.536V15.016ZM306.44 12.456H312.008V14.168H306.44V12.456ZM306.6 17.256H312.92V19H304.52V7.8H312.696V9.544H306.6V17.256ZM318.71 19.16C317.836 19.16 316.998 19.0373 316.198 18.792C315.398 18.536 314.764 18.2107 314.294 17.816L315.014 16.2C315.462 16.552 316.017 16.8453 316.678 17.08C317.34 17.3147 318.017 17.432 318.71 17.432C319.297 17.432 319.772 17.368 320.134 17.24C320.497 17.112 320.764 16.9413 320.934 16.728C321.105 16.504 321.19 16.2533 321.19 15.976C321.19 15.6347 321.068 15.3627 320.822 15.16C320.577 14.9467 320.257 14.7813 319.862 14.664C319.478 14.536 319.046 14.4187 318.566 14.312C318.097 14.2053 317.622 14.0827 317.142 13.944C316.673 13.7947 316.241 13.608 315.846 13.384C315.462 13.1493 315.148 12.84 314.902 12.456C314.657 12.072 314.534 11.5813 314.534 10.984C314.534 10.376 314.694 9.82133 315.014 9.32C315.345 8.808 315.841 8.40267 316.502 8.104C317.174 7.79467 318.022 7.64 319.046 7.64C319.718 7.64 320.385 7.72533 321.046 7.896C321.708 8.06667 322.284 8.312 322.774 8.632L322.118 10.248C321.617 9.94933 321.1 9.73067 320.566 9.592C320.033 9.44267 319.521 9.368 319.03 9.368C318.454 9.368 317.985 9.43733 317.622 9.576C317.27 9.71467 317.009 9.896 316.838 10.12C316.678 10.344 316.598 10.6 316.598 10.888C316.598 11.2293 316.716 11.5067 316.95 11.72C317.196 11.9227 317.51 12.0827 317.894 12.2C318.289 12.3173 318.726 12.4347 319.206 12.552C319.686 12.6587 320.161 12.7813 320.63 12.92C321.11 13.0587 321.542 13.24 321.926 13.464C322.321 13.688 322.636 13.992 322.87 14.376C323.116 14.76 323.238 15.2453 323.238 15.832C323.238 16.4293 323.073 16.984 322.742 17.496C322.422 17.9973 321.926 18.4027 321.254 18.712C320.582 19.0107 319.734 19.16 318.71 19.16ZM327.221 12.456H332.789V14.168H327.221V12.456ZM327.381 17.256H333.701V19H325.301V7.8H333.477V9.544H327.381V17.256ZM336.02 19V7.8H340.628C341.62 7.8 342.468 7.96 343.172 8.28C343.886 8.6 344.436 9.05867 344.82 9.656C345.204 10.2533 345.396 10.9627 345.396 11.784C345.396 12.6053 345.204 13.3147 344.82 13.912C344.436 14.4987 343.886 14.952 343.172 15.272C342.468 15.5813 341.62 15.736 340.628 15.736H337.172L338.1 14.792V19H336.02ZM343.348 19L340.516 14.936H342.74L345.588 19H343.348ZM338.1 15.016L337.172 14.024H340.532C341.449 14.024 342.137 13.8267 342.596 13.432C343.065 13.0373 343.3 12.488 343.3 11.784C343.3 11.0693 343.065 10.52 342.596 10.136C342.137 9.752 341.449 9.56 340.532 9.56H337.172L338.1 8.536V15.016ZM351.035 19L346.139 7.8H348.395L352.763 17.928H351.467L355.883 7.8H357.963L353.083 19H351.035ZM361.065 12.456H366.633V14.168H361.065V12.456ZM361.225 17.256H367.545V19H359.145V7.8H367.321V9.544H361.225V17.256ZM369.863 19V7.8H374.759C375.975 7.8 377.042 8.03467 377.959 8.504C378.877 8.97333 379.591 9.624 380.103 10.456C380.615 11.288 380.871 12.2693 380.871 13.4C380.871 14.52 380.615 15.5013 380.103 16.344C379.591 17.176 378.877 17.8267 377.959 18.296C377.042 18.7653 375.975 19 374.759 19H369.863ZM371.943 17.24H374.663C375.506 17.24 376.231 17.08 376.839 16.76C377.458 16.44 377.933 15.992 378.263 15.416C378.605 14.84 378.775 14.168 378.775 13.4C378.775 12.6213 378.605 11.9493 378.263 11.384C377.933 10.808 377.458 10.36 376.839 10.04C376.231 9.72 375.506 9.56 374.663 9.56H371.943V17.24Z" fill="white"/>
</svg>
