<svg width="21" height="22" viewBox="0 0 21 22" fill="none" xmlns="http://www.w3.org/2000/svg">
<path fill-rule="evenodd" clip-rule="evenodd" d="M4.77271 1.99587V0H6.27271V1.99587H14.4771V0H15.9771V1.99587H17.3636C19.3719 1.99587 21 3.62393 21 5.63223V8.61497V9.97861V18.3167C21 20.325 19.3719 21.953 17.3636 21.953H3.63636C1.62806 21.953 0 20.325 0 18.3167V9.97861V8.61497V5.63224C0 3.62393 1.62806 1.99587 3.63636 1.99587H4.77271ZM4.77271 3.35951H3.63636C2.38117 3.35951 1.36364 4.37704 1.36364 5.63224V8.61497H19.6364V5.63223C19.6364 4.37704 18.6188 3.35951 17.3636 3.35951H15.9771V5.98715H14.4771V3.35951H6.27271V5.98715H4.77271V3.35951ZM19.6364 18.3167V9.97861H1.36364V18.3167C1.36364 19.5719 2.38117 20.5894 3.63636 20.5894H17.3636C18.6188 20.5894 19.6364 19.5719 19.6364 18.3167Z" fill="#22DD85"/>
</svg>
