<svg width="593" height="97" viewBox="0 0 593 97" fill="none" xmlns="http://www.w3.org/2000/svg">
<path d="M20 10.9C24.2 7.7 28.8 5.23333 33.8 3.5C38.8 1.7 44.1333 0.799997 49.8 0.799997H50.2C53.4667 0.799997 56 1.73333 57.8 3.6C59.6 5.46666 60.5 7.83333 60.5 10.7C60.5 13.5667 59.5 15.9333 57.5 17.8C55.5 19.6667 53.0667 20.6 50.2 20.6H49.8C45.7333 20.6 41.8667 21.4 38.2 23C34.6 24.5333 31.4333 26.6667 28.7 29.4C26.0333 32.1333 23.9 35.3333 22.3 39C20.7667 42.6667 20 46.6 20 50.8V85.1C20 87.9 19.0333 90.2667 17.1 92.2C15.2333 94.0667 12.9 95 10.1 95C8.76667 95 7.46667 94.7667 6.2 94.3C5 93.7667 3.93333 93.0667 3 92.2C2.13333 91.2667 1.43333 90.2 0.9 89C0.366667 87.8 0.1 86.5 0.1 85.1V10.7C0.1 9.3 0.366667 8 0.9 6.8C1.43333 5.6 2.13333 4.56666 3 3.7C3.93333 2.76666 5 2.03333 6.2 1.49999C7.46667 0.966663 8.8 0.699998 10.2 0.699998C11.6 0.699998 12.9 0.966663 14.1 1.49999C15.3 2.03333 16.3333 2.76666 17.2 3.7C18.0667 4.56666 18.7333 5.6 19.2 6.8C19.7333 8 20 9.3 20 10.7V10.9ZM83.05 48.5C83.05 44.6333 83.7833 41.0333 85.25 37.7C86.7167 34.3667 88.6833 31.4667 91.15 29C93.6833 26.4667 96.6167 24.5 99.95 23.1C103.35 21.6333 106.95 20.9 110.75 20.9C114.617 20.9 118.217 21.6333 121.55 23.1C124.95 24.5 127.883 26.4667 130.35 29C132.883 31.4667 134.85 34.3667 136.25 37.7C137.717 41.0333 138.45 44.6333 138.45 48.5C138.45 52.3 137.717 55.9 136.25 59.3C134.85 62.6333 132.883 65.5667 130.35 68.1C127.883 70.5667 124.95 72.5333 121.55 74C118.217 75.4667 114.617 76.2 110.75 76.2C106.95 76.2 103.35 75.4667 99.95 74C96.6167 72.5333 93.6833 70.5667 91.15 68.1C88.6833 65.5667 86.7167 62.6333 85.25 59.3C83.7833 55.9 83.05 52.3 83.05 48.5ZM63.05 48.5C63.05 55.1 64.2833 61.3 66.75 67.1C69.2833 72.8333 72.7167 77.8667 77.05 82.2C81.3833 86.5333 86.45 89.9667 92.25 92.5C98.05 94.9667 104.217 96.2 110.75 96.2C117.35 96.2 123.517 94.9667 129.25 92.5C135.05 89.9667 140.083 86.5333 144.35 82.2C148.683 77.8667 152.083 72.8333 154.55 67.1C157.083 61.3 158.35 55.1 158.35 48.5C158.35 41.9 157.083 35.7333 154.55 30C152.083 24.2 148.683 19.1333 144.35 14.8C140.083 10.4667 135.05 7.06666 129.25 4.6C123.517 2.06666 117.35 0.799997 110.75 0.799997C104.217 0.799997 98.05 2.06666 92.25 4.6C86.45 7.06666 81.3833 10.4667 77.05 14.8C72.7167 19.1333 69.2833 24.2 66.75 30C64.2833 35.7333 63.05 41.9 63.05 48.5ZM166.956 48.5C166.956 41.9 168.19 35.7333 170.656 30C173.19 24.2 176.623 19.1333 180.956 14.8C185.29 10.4667 190.356 7.06666 196.156 4.6C201.956 2.06666 208.123 0.799997 214.656 0.799997C221.19 0.799997 227.323 2.03333 233.056 4.5C238.79 6.96666 243.79 10.3667 248.056 14.7C252.39 18.9667 255.823 23.9667 258.356 29.7C260.89 35.4333 262.19 41.5667 262.256 48.1V84.8C262.256 86.2 261.99 87.5333 261.456 88.8C260.923 90 260.19 91.0667 259.256 92C258.39 92.9333 257.323 93.6667 256.056 94.2C254.79 94.7333 253.456 95 252.056 95C249.39 95 247.156 94.1333 245.356 92.4C243.623 90.6 242.623 88.4333 242.356 85.9C238.423 89.1 234.123 91.6333 229.456 93.5C224.79 95.3 219.856 96.2 214.656 96.2C208.123 96.2 201.956 94.9667 196.156 92.5C190.356 89.9667 185.29 86.5333 180.956 82.2C176.623 77.8667 173.19 72.8333 170.656 67.1C168.19 61.3 166.956 55.1 166.956 48.5ZM186.956 48.5C186.956 52.3 187.69 55.9 189.156 59.3C190.623 62.6333 192.59 65.5667 195.056 68.1C197.59 70.5667 200.523 72.5333 203.856 74C207.256 75.4667 210.856 76.2 214.656 76.2C218.523 76.2 222.123 75.4667 225.456 74C228.856 72.5333 231.79 70.5667 234.256 68.1C236.79 65.5667 238.756 62.6333 240.156 59.3C241.623 55.9 242.356 52.3 242.356 48.5C242.356 44.6333 241.623 41.0333 240.156 37.7C238.756 34.3667 236.79 31.4667 234.256 29C231.79 26.4667 228.856 24.5 225.456 23.1C222.123 21.6333 218.523 20.9 214.656 20.9C210.856 20.9 207.256 21.6333 203.856 23.1C200.523 24.5 197.59 26.4667 195.056 29C192.59 31.4667 190.623 34.3667 189.156 37.7C187.69 41.0333 186.956 44.6333 186.956 48.5ZM355.627 85.2C355.627 88 354.66 90.3333 352.727 92.2C350.86 94.0667 348.56 95 345.827 95C344.493 95 343.193 94.7667 341.927 94.3C340.727 93.7667 339.66 93.0667 338.727 92.2C337.793 91.2667 337.06 90.2333 336.527 89.1C335.993 87.9 335.727 86.6 335.727 85.2V36.3C335.66 34.0333 335.227 31.9667 334.427 30.1C333.693 28.1667 332.66 26.5 331.327 25.1C329.993 23.7 328.393 22.6333 326.527 21.9C324.66 21.1 322.627 20.7 320.427 20.7C318.227 20.7 316.027 21.1 313.827 21.9C311.693 22.7 309.76 23.8 308.027 25.2C306.36 26.6 304.96 28.2667 303.827 30.2C302.76 32.0667 302.193 34.0667 302.127 36.2V36.8C302.06 36.8667 302.06 37 302.127 37.2C302.193 37.4 302.193 37.6667 302.127 38V85.1C302.127 87.9 301.16 90.2667 299.227 92.2C297.36 94.0667 295.027 95 292.227 95C290.893 95 289.593 94.7667 288.327 94.3C287.127 93.7667 286.06 93.0667 285.127 92.2C284.26 91.2667 283.56 90.2 283.027 89C282.493 87.8 282.227 86.5 282.227 85.1V10.7C282.227 9.3 282.493 8 283.027 6.8C283.56 5.6 284.293 4.56666 285.227 3.7C286.16 2.76666 287.227 2.03333 288.427 1.49999C289.627 0.966663 290.927 0.699998 292.327 0.699998C294.86 0.699998 296.993 1.5 298.727 3.1C300.46 4.7 301.527 6.66666 301.927 9C304.66 6.46666 307.66 4.46666 310.927 3C314.26 1.46666 317.827 0.699998 321.627 0.699998C326.96 0.699998 331.76 1.76666 336.027 3.89999C340.36 5.96666 344.027 8.8 347.027 12.4C350.893 8.8 355.327 5.96666 360.327 3.89999C365.327 1.76666 370.427 0.699998 375.627 0.699998C380.693 0.699998 385.293 1.66666 389.427 3.6C393.56 5.46666 397.093 8.06666 400.027 11.4C402.96 14.6667 405.227 18.5 406.827 22.9C408.427 27.3 409.227 32 409.227 37V85.2C409.227 88 408.26 90.3333 406.327 92.2C404.46 94.0667 402.16 95 399.427 95C398.093 95 396.793 94.7667 395.527 94.3C394.327 93.7667 393.26 93.0667 392.327 92.2C391.393 91.2667 390.66 90.2333 390.127 89.1C389.593 87.9 389.327 86.6 389.327 85.2V36.7C389.26 34.4333 388.86 32.3333 388.127 30.4C387.393 28.4 386.327 26.7 384.927 25.3C383.593 23.8333 381.993 22.7 380.127 21.9C378.26 21.1 376.193 20.7 373.927 20.7C371.727 20.7 369.527 21.1333 367.327 22C365.193 22.8 363.26 23.9 361.527 25.3C359.86 26.7 358.493 28.3667 357.427 30.3C356.36 32.1667 355.76 34.1667 355.627 36.3V85.2ZM508.23 57.5C511.096 57.5 513.43 56.6333 515.23 54.9C517.096 53.1 518.03 50.8 518.03 48C517.963 41.4667 516.63 35.3333 514.03 29.6C511.496 23.8667 508.063 18.8667 503.73 14.6C499.396 10.3333 494.33 6.96666 488.53 4.5C482.796 2.03333 476.663 0.799997 470.13 0.799997C463.53 0.799997 457.33 2.06666 451.53 4.6C445.73 7.06666 440.663 10.4667 436.33 14.8C431.996 19.0667 428.563 24.1 426.03 29.9C423.496 35.7 422.23 41.9 422.23 48.5C422.23 55.1 423.496 61.3 426.03 67.1C428.563 72.9 431.996 77.9667 436.33 82.3C440.663 86.5667 445.73 89.9333 451.53 92.4C457.33 94.8667 463.53 96.1 470.13 96.1C473.93 96.1 477.363 95.8 480.43 95.2C483.496 94.6667 486.263 93.9 488.73 92.9C491.263 91.9 493.496 90.7667 495.43 89.5C497.363 88.1667 499.096 86.7667 500.63 85.3C502.963 83.3667 504.196 81.2 504.33 78.8C504.53 76.3333 503.996 74.1333 502.73 72.2C502.196 71.2667 501.53 70.4333 500.73 69.7C499.93 68.9 498.996 68.3333 497.93 68C496.396 67.4667 494.796 67.3333 493.13 67.6C491.463 67.8 489.763 68.5667 488.03 69.9C486.096 72.0333 483.696 73.7667 480.83 75.1C477.963 76.3667 474.396 77 470.13 77C467.063 77 464.13 76.5333 461.33 75.6C458.596 74.6 456.096 73.2333 453.83 71.5C451.563 69.7667 449.596 67.7 447.93 65.3C446.33 62.9 445.13 60.3 444.33 57.5H508.23ZM443.73 40.9C444.396 37.9 445.53 35.1333 447.13 32.6C448.73 30 450.696 27.7667 453.03 25.9C455.363 23.9667 457.996 22.4667 460.93 21.4C463.93 20.3333 467.096 19.8 470.43 19.8C473.763 19.8 476.93 20.3333 479.93 21.4C482.93 22.4667 485.596 23.9333 487.93 25.8C490.33 27.6667 492.33 29.9 493.93 32.5C495.596 35.0333 496.796 37.8333 497.53 40.9H443.73ZM552.422 10.9C556.622 7.7 561.222 5.23333 566.222 3.5C571.222 1.7 576.555 0.799997 582.222 0.799997H582.622C585.889 0.799997 588.422 1.73333 590.222 3.6C592.022 5.46666 592.922 7.83333 592.922 10.7C592.922 13.5667 591.922 15.9333 589.922 17.8C587.922 19.6667 585.489 20.6 582.622 20.6H582.222C578.155 20.6 574.289 21.4 570.622 23C567.022 24.5333 563.855 26.6667 561.122 29.4C558.455 32.1333 556.322 35.3333 554.722 39C553.189 42.6667 552.422 46.6 552.422 50.8V85.1C552.422 87.9 551.455 90.2667 549.522 92.2C547.655 94.0667 545.322 95 542.522 95C541.189 95 539.889 94.7667 538.622 94.3C537.422 93.7667 536.355 93.0667 535.422 92.2C534.555 91.2667 533.855 90.2 533.322 89C532.789 87.8 532.522 86.5 532.522 85.1V10.7C532.522 9.3 532.789 8 533.322 6.8C533.855 5.6 534.555 4.56666 535.422 3.7C536.355 2.76666 537.422 2.03333 538.622 1.49999C539.889 0.966663 541.222 0.699998 542.622 0.699998C544.022 0.699998 545.322 0.966663 546.522 1.49999C547.722 2.03333 548.755 2.76666 549.622 3.7C550.489 4.56666 551.155 5.6 551.622 6.8C552.155 8 552.422 9.3 552.422 10.7V10.9Z" fill="#22DD85"/>
</svg>
